:SAMPLES-PER-SECOND 30
:FULLY-SPECIFIED
:DEGREES
17
root  -74.3723 31.821 0.505653 -160.823 85.9136 -151.973
RightUpLeg  -41.3274 -5.41204 7.36868
RightLeg  65.7584 7.66509 -7.49825
RightFoot  -15.2831 -0.130573 -7.21455
RightToes  3.49245e-010 -3.18055e-015 8.94531e-016
Spine  47.9496 -1.95124 2.30662
Spine1  13.0036 -0.721092 -0.414607
HEad  -47.0073 -4.06408 4.79809
LeftShoulder1  0 0 -2.47967e-037
LeftArm  0.722472 -4.791 -79.0542
LeftForeArm  -33.4854 -40.7903 24.3552
LeftHand  0.879208 6.63123 3.75785
RightShoulder  -2.48481e-017 0 -8.08114e-019
RightArm  25.8364 -5.25148 82.1867
RightForeArm  -43.4655 21.7525 -21.292
RightHand  1.89703 -13.7468 -8.29897
LeftUpLeg  -48.0699 -0.437029 1.48342
LeftLeg  78.504 -12.1935 2.05647
LeftFoot  -7.96226 0.189465 -4.49783
LeftToes  -9.64061e-011 -5.23042e-011 -2.66379e-011
18
root  -73.3199 31.1536 0.557278 179.566 86.1459 -172.729
RightUpLeg  -43.3405 -5.56119 6.00511
RightLeg  70.8571 8.37007 -7.96931
RightFoot  -19.4272 -0.336536 -6.26436
RightToes  3.49245e-010 -3.18055e-015 8.94531e-016
Spine  51.13 -1.7314 1.87709
Spine1  12.4707 0.0494557 -1.90071
HEad  -50.0217 -5.30706 5.51181
LeftShoulder1  0 0 -2.47967e-037
LeftArm  -0.345045 -6.47883 -79.2329
LeftForeArm  -33.6215 -41.9517 24.9896
LeftHand  0.867171 6.57549 4.07962
RightShoulder  -2.48481e-017 0 -8.08114e-019
RightArm  19.9416 0.607668 80.5536
RightForeArm  -39.3511 22.9944 -22.3217
RightHand  1.94721 -14.0456 -8.25806
LeftUpLeg  -54.6914 -0.37593 -2.07352
LeftLeg  69.1738 -11.837 1.17671
LeftFoot  -6.66834 0.413703 -7.28289
LeftToes  -9.64061e-011 -5.23042e-011 -2.66379e-011
19
root  -72.1606 30.2281 0.54114 166.975 85.9502 173.569
RightUpLeg  -45.4922 -5.84327 5.15881
RightLeg  76.7417 9.24261 -8.56458
RightFoot  -23.916 -0.493459 -5.2827
RightToes  3.49245e-010 -3.18055e-015 8.94531e-016
Spine  53.8896 -1.83299 2.25488
Spine1  11.5603 0.695914 -3.14059
HEad  -52.462 -6.5197 6.51652
LeftShoulder1  0 0 -2.47967e-037
LeftArm  -1.40252 -7.27397 -79.6926
LeftForeArm  -34.2358 -43.7988 26.0277
LeftHand  0.887573 6.70292 4.3706
RightShoulder  -2.48481e-017 0 -8.08114e-019
RightArm  15.3145 5.99469 78.528
RightForeArm  -35.8177 23.9394 -23.1071
RightHand  2.02447 -14.1996 -8.97596
LeftUpLeg  -59.0506 -1.3073 -4.42879
LeftLeg  60.119 -11.5101 0.566077
LeftFoot  -4.71868 0.738246 -9.78609
LeftToes  -9.64061e-011 -5.23042e-011 -2.66379e-011
20
root  -70.9207 29.0713 0.456567 159.599 86.0674 165.668
RightUpLeg  -47.0622 -5.92316 4.59666
RightLeg  83.3635 10.3419 -9.06999
RightFoot  -28.407 -0.571185 -4.30699
RightToes  3.49245e-010 -3.18055e-015 8.94531e-016
Spine  56.1167 -1.93362 2.86815
Spine1  11.1619 1.3711 -4.20179
HEad  -54.2091 -7.41095 7.54301
LeftShoulder1  0 0 -2.47967e-037
LeftArm  -2.25799 -7.47517 -80.3375
LeftForeArm  -35.2155 -45.7293 27.1734
LeftHand  0.930058 6.94225 4.28755
RightShoulder  -2.48481e-017 0 -8.08114e-019
RightArm  12.6179 11.3282 76.4625
RightForeArm  -32.9276 24.1903 -23.4398
RightHand  2.07425 -14.0786 -10.0094
LeftUpLeg  -61.7849 -2.85374 -5.27371
LeftLeg  55.4156 -10.3368 2.03864
LeftFoot  -1.61534 0.919209 -9.00874
LeftToes  -9.64061e-011 -5.23042e-011 -2.66379e-011
21
root  -69.6245 27.6645 0.317556 149.986 86.6661 156.118
RightUpLeg  -48.3604 -5.53957 3.94409
RightLeg  91.2395 11.675 -8.67646
RightFoot  -32.3522 -0.375277 -2.30791
RightToes  3.49245e-010 -3.18055e-015 8.94531e-016
Spine  57.7109 -1.83763 3.3523
Spine1  11.4448 2.1854 -5.19572
HEad  -55.3505 -8.14749 8.2853
LeftShoulder1  0 0 -2.47967e-037
LeftArm  -2.68487 -7.45447 -81.0842
LeftForeArm  -35.9825 -47.2596 28.1492
LeftHand  0.959904 7.10365 3.84462
RightShoulder  -2.48481e-017 0 -8.08114e-019
RightArm  10.9321 16.3149 74.7093
RightForeArm  -30.6217 23.8196 -23.339
RightHand  2.10055 -13.9218 -10.8279
LeftUpLeg  -64.8097 -4.21531 -5.2834
LeftLeg  58.3106 -9.21273 4.74097
LeftFoot  2.07461 0.629695 -4.73271
LeftToes  -9.64061e-011 -5.23042e-011 -2.66379e-011
22
root  -68.2312 25.99 0.140451 130.636 87.4214 137.127
RightUpLeg  -49.7648 -4.86391 3.04527
RightLeg  100.724 12.8661 -7.00167
RightFoot  -35.2311 0.172058 0.805406
RightToes  3.49245e-010 -3.18055e-015 8.94531e-016
Spine  58.8925 -1.6799 3.87629
Spine1  11.735 3.04884 -6.37592
HEad  -56.2265 -9.07699 8.8098
LeftShoulder1  0 0 -2.47967e-037
LeftArm  -2.43265 -7.46558 -81.7768
LeftForeArm  -36.0458 -48.1509 28.7788
LeftHand  0.954781 7.06773 3.5709
RightShoulder  -2.48481e-017 0 -8.08114e-019
RightArm  9.33846 20.5555 73.3425
RightForeArm  -28.5253 23.0347 -22.9664
RightHand  2.15219 -13.9158 -11.5988
LeftUpLeg  -69.0392 -4.57229 -5.45021
LeftLeg  67.3257 -9.71828 6.74811
LeftFoot  3.47676 0.00126562 0.119919
LeftToes  -9.64061e-011 -5.23042e-011 -2.66379e-011
23
root  -66.8068 24.2213 -0.0446964 106.213 87.4451 113.274
RightUpLeg  -50.8129 -4.44947 1.57676
RightLeg  110.674 13.5413 -4.9691
RightFoot  -36.4022 0.750074 3.60159
RightToes  3.49245e-010 -3.18055e-015 8.94531e-016
Spine  59.9638 -1.67065 4.32839
Spine1  11.9212 3.69908 -7.7367
HEad  -57.2294 -10.2627 9.30279
LeftShoulder1  0 0 -2.47967e-037
LeftArm  -1.53367 -7.87721 -82.4196
LeftForeArm  -35.447 -48.2062 28.8651
LeftHand  0.91816 6.85671 3.70078
RightShoulder  -2.48481e-017 0 -8.08114e-019
RightArm  8.20857 24.3442 72.1025
RightForeArm  -26.549 21.7129 -22.3554
RightHand  2.20137 -13.8953 -12.382
LeftUpLeg  -73.5807 -4.22858 -6.37438
LeftLeg  77.8126 -11.2714 7.73816
LeftFoot  1.05759 -0.379979 3.07665
LeftToes  -9.64061e-011 -5.23042e-011 -2.66379e-011
24
root  -65.4747 22.6004 -0.213575 93.6438 86.6122 101.407
RightUpLeg  -50.9424 -4.72502 -0.541674
RightLeg  119.482 13.7366 -3.36317
RightFoot  -36.1658 1.12766 5.4817
RightToes  3.49245e-010 -3.18055e-015 8.94531e-016
Spine  60.8729 -1.81245 4.59242
Spine1  12.5665 4.02915 -8.77338
HEad  -58.2822 -11.493 9.73671
LeftShoulder1  0 0 -2.47967e-037
LeftArm  -0.240349 -8.89574 -83.2749
LeftForeArm  -34.7953 -47.5144 28.417
LeftHand  0.861379 6.53877 4.01523
RightShoulder  -2.48481e-017 0 -8.08114e-019
RightArm  6.47206 28.1219 70.6373
RightForeArm  -23.2387 20.0254 -20.5949
RightHand  2.18172 -13.69 -12.7411
LeftUpLeg  -77.3304 -3.93687 -7.98821
LeftLeg  86.7269 -12.8083 8.45518
LeftFoot  -3.24634 -0.359582 3.87654
LeftToes  -9.64061e-011 -5.23042e-011 -2.66379e-011
25
root  -64.2222 21.192 -0.366031 92.2833 85.8483 100.544
RightUpLeg  -50.093 -5.67737 -2.78133
RightLeg  126.736 13.3702 -1.84845
RightFoot  -36.0045 1.47568 7.22056
RightToes  3.49245e-010 -3.18055e-015 8.94531e-016
Spine  61.4034 -2.03149 5.11494
Spine1  13.5352 4.22464 -9.22761
HEad  -58.9196 -12.5497 10.0723
LeftShoulder1  0 0 -2.47967e-037
LeftArm  1.43876 -10.1797 -84.4276
LeftForeArm  -34.8283 -46.7157 27.8618
LeftHand  0.800048 6.21998 4.54538
RightShoulder  -2.48481e-017 0 -8.08114e-019
RightArm  1.9935 31.595 68.8783
RightForeArm  -16.8591 18.3569 -17.1465
RightHand  2.12328 -13.4615 -12.6036
LeftUpLeg  -80.2178 -3.81262 -9.64343
LeftLeg  94.0871 -14.235 9.06387
LeftFoot  -7.25487 -0.228624 3.83681
LeftToes  -9.64061e-011 -5.23042e-011 -2.66379e-011
26
root  -63.001 19.9531 -0.50218 91.2483 85.5299 99.6498
RightUpLeg  -48.3658 -6.83101 -4.97087
RightLeg  132.725 12.2984 -0.167728
RightFoot  -36.2927 1.78994 8.66321
RightToes  3.49245e-010 -3.18055e-015 8.94531e-016
Spine  61.7812 -2.28882 6.00365
Spine1  14.0529 4.51808 -9.66582
HEad  -59.0992 -13.3426 10.5317
LeftShoulder1  0 0 -2.47967e-037
LeftArm  3.68917 -11.3092 -85.5236
LeftForeArm  -35.4869 -46.5651 27.7108
LeftHand  0.757533 6.04648 5.46342
RightShoulder  -2.48481e-017 0 -8.08114e-019
RightArm  -3.49489 34.128 67.0325
RightForeArm  -9.60058 16.6238 -13.5908
RightHand  2.09809 -13.4022 -12.4107
LeftUpLeg  -82.6578 -3.6857 -10.93
LeftLeg  100.732 -15.6691 9.48515
LeftFoot  -11.0186 -0.11457 4.07783
LeftToes  -9.64061e-011 -5.23042e-011 -2.66379e-011
27
root  -61.868 18.9109 -0.607515 86.2189 85.0381 94.9425
RightUpLeg  -45.7805 -7.25302 -7.91277
RightLeg  137.482 10.5964 1.54051
RightFoot  -35.6715 1.74224 8.66551
RightToes  3.49245e-010 -3.18055e-015 8.94531e-016
Spine  62.8775 -2.32842 6.44196
Spine1  14.0724 4.99525 -10.5199
HEad  -59.3584 -13.9778 11.2525
LeftShoulder1  0 0 -2.47967e-037
LeftArm  6.38078 -12.433 -86.2362
LeftForeArm  -35.6419 -47.1549 28.1011
LeftHand  0.737681 6.00775 6.45238
RightShoulder  -2.48481e-017 0 -8.08114e-019
RightArm  -7.43694 35.9858 65.0742
RightForeArm  -3.80563 14.798 -11.0293
RightHand  2.10053 -13.4102 -12.4215
LeftUpLeg  -84.2073 -3.23979 -12.2272
LeftLeg  106.52 -17.0525 9.81375
LeftFoot  -15.1198 0.0176818 4.1796
LeftToes  -9.64061e-011 -5.23042e-011 -2.66379e-011
28
root  -60.7755 18.0172 -0.726982 80.5105 85.3599 88.7459
RightUpLeg  -43.5138 -7.27923 -10.4035
RightLeg  141.078 8.18707 3.35646
RightFoot  -34.1268 1.37568 7.3467
RightToes  3.49245e-010 -3.18055e-015 8.94531e-016
Spine  63.0988 -2.6239 7.45402
Spine1  14.5037 5.78695 -11.7271
HEad  -59.9661 -14.6959 11.8559
LeftShoulder1  0 0 -2.47967e-037
LeftArm  9.04511 -13.9307 -86.6739
LeftForeArm  -34.3127 -47.8484 28.6943
LeftHand  0.700464 5.87044 7.18267
RightShoulder  -2.48481e-017 0 -8.08114e-019
RightArm  -9.90381 38.1124 62.8298
RightForeArm  0.841794 12.7955 -8.96179
RightHand  2.11378 -13.3842 -12.7177
LeftUpLeg  -86.3211 -3.04801 -12.5818
LeftLeg  111.685 -18.3871 10.0152
LeftFoot  -19.0287 0.118168 3.59007
LeftToes  -9.64061e-011 -5.23042e-011 -2.66379e-011
29
root  -59.6843 17.2857 -0.873528 71.8169 86.564 78.5604
RightUpLeg  -41.7197 -7.17135 -12.2959
RightLeg  143.609 4.80558 5.52948
RightFoot  -32.7032 0.996085 5.71594
RightToes  3.49245e-010 -3.18055e-015 8.94531e-016
Spine  62.2977 -3.23599 9.22011
Spine1  15.2174 6.70927 -12.8838
HEad  -60.6293 -15.4844 11.906
LeftShoulder1  0 0 -2.47967e-037
LeftArm  11.2268 -15.6364 -86.9976
LeftForeArm  -32.0597 -48.1418 29.0848
LeftHand  0.614252 5.52139 8.0469
RightShoulder  -2.48481e-017 0 -8.08114e-019
RightArm  -11.1352 40.7606 60.7675
RightForeArm  4.11413 10.54 -7.33634
RightHand  2.17832 -13.4771 -13.3991
LeftUpLeg  -88.8474 -3.1279 -12.0334
LeftLeg  116.261 -19.6662 10.1405
LeftFoot  -22.5027 0.158001 2.81318
LeftToes  -9.64061e-011 -5.23042e-011 -2.66379e-011
30
root  -58.6365 16.7627 -1.00221 50.2824 87.229 55.3963
RightUpLeg  -39.8806 -6.48419 -14.6009
RightLeg  145.007 0.840419 7.91499
RightFoot  -31.3004 0.607778 3.73232
RightToes  3.49245e-010 -3.18055e-015 8.94531e-016
Spine  62.1076 -3.5943 10.3679
Spine1  15.2538 7.44103 -13.921
HEad  -61.2077 -15.8771 11.6208
LeftShoulder1  0 0 -2.47967e-037
LeftArm  12.4485 -16.9941 -86.9434
LeftForeArm  -30.4291 -48.3147 29.3431
LeftHand  0.519911 5.2034 9.38838
RightShoulder  -2.48481e-017 0 -8.08114e-019
RightArm  -10.9826 43.4824 59.7492
RightForeArm  5.6991 8.43211 -6.49216
RightHand  2.25563 -13.6627 -13.9405
LeftUpLeg  -90.4769 -2.89154 -11.6231
LeftLeg  120.027 -20.8684 10.3032
LeftFoot  -25.9214 0.168521 2.22441
LeftToes  -9.64061e-011 -5.23042e-011 -2.66379e-011
31
root  -57.5924 16.3511 -1.10748 18.8622 87.0636 21.7853
RightUpLeg  -38.623 -5.49167 -16.2647
RightLeg  145.328 -2.86658 10.1949
RightFoot  -29.6833 0.189911 1.22575
RightToes  3.49245e-010 -3.18055e-015 8.94531e-016
Spine  61.9679 -3.69179 11.0453
Spine1  14.5566 8.04628 -15.0542
HEad  -61.9055 -15.5725 11.4596
LeftShoulder1  0 0 -2.47967e-037
LeftArm  12.2543 -17.8439 -86.2524
LeftForeArm  -29.9468 -48.9528 29.8634
LeftHand  0.473022 5.12004 10.7437
RightShoulder  -2.48481e-017 0 -8.08114e-019
RightArm  -9.57356 46.1977 59.9347
RightForeArm  6.81701 6.79732 -5.81787
RightHand  2.19784 -13.5765 -13.3563
LeftUpLeg  -92.5101 -2.58604 -10.7267
LeftLeg  123.66 -21.9199 10.1718
LeftFoot  -28.7335 0.0760332 1.21227
LeftToes  -9.64061e-011 -5.23042e-011 -2.66379e-011
